<?xml version="1.0" standalone="no"?><!DOCTYPE svg PUBLIC "-//W3C//DTD SVG 1.1//EN" "http://www.w3.org/Graphics/SVG/1.1/DTD/svg11.dtd"><svg t="1688188591544" class="icon" viewBox="0 0 1024 1024" version="1.1" xmlns="http://www.w3.org/2000/svg" p-id="12740" xmlns:xlink="http://www.w3.org/1999/xlink" width="200" height="200"><path d="M900.361 584.818c-48.545-24.273-63.108-43.69-63.108-82.527 0-36.409 14.563-55.827 63.108-82.527 26.7-16.99 29.128-31.554 29.128-55.827V225.583c0-43.69-36.41-80.1-80.1-80.1H160.047c-43.69 0-80.1 36.41-80.1 80.1v138.354c0 21.846 2.428 41.264 29.128 55.827 19.418 9.71 63.109 33.982 63.109 82.527 0 53.4-31.555 70.39-60.682 80.1h-2.427c-26.7 16.99-29.127 43.69-29.127 55.826v138.354c0 43.69 36.409 80.1 80.1 80.1h689.341c43.69 0 80.1-36.41 80.1-80.1V638.217c0-26.7-9.71-36.408-29.128-53.4z m-266.998-48.545c14.564 0 26.7 12.136 26.7 26.7s-12.136 26.7-26.7 26.7H531.418v101.944c0 14.564-12.136 26.7-26.7 26.7s-26.7-12.136-26.7-26.7V589.672H376.073c-14.563 0-26.7-12.136-26.7-26.7s12.137-26.7 26.7-26.7h101.945v-63.108H368.792c-14.564 0-26.7-12.136-26.7-26.7s12.136-26.7 26.7-26.7h80.1l-84.955-84.954c-9.709-9.709-9.709-26.7 0-36.409 9.71-9.709 26.7-9.709 36.41 0l104.371 104.372L609.09 298.401c9.71-9.709 26.7-9.709 36.41 0 9.708 9.71 9.708 26.7 0 36.41l-84.955 84.953h77.672c14.564 0 26.7 12.136 26.7 26.7s-12.136 26.7-26.7 26.7H528.991v63.109h104.372z" p-id="12741"></path></svg>