<?xml version="1.0" standalone="no"?><!DOCTYPE svg PUBLIC "-//W3C//DTD SVG 1.1//EN" "http://www.w3.org/Graphics/SVG/1.1/DTD/svg11.dtd"><svg t="1688269827940" class="icon" viewBox="0 0 1024 1024" version="1.1" xmlns="http://www.w3.org/2000/svg" p-id="1533" xmlns:xlink="http://www.w3.org/1999/xlink" width="200" height="200"><path d="M612.333 311.713l86.092-117.893c3.887-5.328 4.267-12.193 0.967-17.863-3.3-5.65-9.728-9.178-16.725-9.178H575.412l-49.967-64.588c-3.603-4.627-9.387-7.831-15.607-7.32-6.2 0.039-11.984 2.845-15.493 7.548l-48.26 64.38H341.333c-7.073 0-13.577 3.621-16.839 9.386-3.261 5.765-2.75 12.705 1.328 18.015l87.419 113.702c-151.06 25.675-280.5 170.022-280.5 310.101v31.573c0 154.416 137.955 279.61 308.148 279.61H583.11c170.193 0 308.148-125.194 308.148-279.61v-31.573c0-133.898-132.703-271.91-278.926-306.29z m-234.44-110.175h78.147c6.24 0 12.099-2.806 15.626-7.528l38.533-51.39 39.936 51.618c3.565 4.589 9.31 7.32 15.454 7.32h81.541l-75.548 103.461c-9.008-0.872-18.015-1.555-27.004-1.555h-84.442c-1.251 0-2.484 0.19-3.754 0.209l-78.488-102.135z m475.44 448.038c0 135.017-121.23 244.85-270.222 244.85H440.89c-148.992 0-270.222-109.833-270.222-244.85v-31.573c0-138.581 146.09-279.799 289.488-279.799h84.442c150.035 0 308.736 143.816 308.736 279.799v31.573z m-194.256-49.512c10.41 0 18.849-7.623 18.849-17.048 0-9.405-8.439-17.047-18.85-17.047h-77.861l56.85-92.331c5.064-8.23 1.783-18.603-7.3-23.173-9.083-4.589-20.575-1.63-25.638 6.6l-67.053 108.923h-23.97l-67.052-108.924c-5.063-8.23-16.574-11.188-25.638-6.599-9.083 4.59-12.364 14.962-7.3 23.173l56.85 92.33h-82.356c-10.41 0-18.85 7.643-18.85 17.048 0 9.406 8.44 17.048 18.85 17.048h116.376v66.977H388.608c-10.41 0-18.85 7.642-18.85 17.048 0 9.406 8.44 17.048 18.85 17.048h116.376v79.189c0 9.406 8.438 17.048 18.849 17.048s18.85-7.642 18.85-17.048v-79.19h116.394c10.41 0 18.849-7.623 18.849-17.047 0-9.406-8.439-17.048-18.85-17.048H542.683v-66.977h116.395z" p-id="1534"></path></svg>