<?xml version="1.0" standalone="no"?><!DOCTYPE svg PUBLIC "-//W3C//DTD SVG 1.1//EN" "http://www.w3.org/Graphics/SVG/1.1/DTD/svg11.dtd"><svg t="1688188402011" class="icon" viewBox="0 0 1024 1024" version="1.1" xmlns="http://www.w3.org/2000/svg" p-id="11194" xmlns:xlink="http://www.w3.org/1999/xlink" width="200" height="200"><path d="M832.853333 940.942222H199.111111c-13.653333 0-23.893333-11.377778-23.893333-23.893333V111.502222c0-13.653333 11.377778-23.893333 23.893333-23.893333h633.742222c13.653333 0 23.893333 11.377778 23.893334 23.893333v805.546667c0 13.653333-11.377778 23.893333-23.893334 23.893333z m-609.848889-47.786666H807.822222V136.533333H223.004444v756.622223z" fill="#959595" p-id="11195"></path><path d="M700.871111 304.924444H344.746667c-13.653333 0-23.893333-11.377778-23.893334-23.893333 0-13.653333 11.377778-23.893333 23.893334-23.893333h356.124444c13.653333 0 23.893333 11.377778 23.893333 23.893333 1.137778 12.515556-10.24 23.893333-23.893333 23.893333zM625.777778 448.284444H344.746667c-13.653333 0-23.893333-11.377778-23.893334-23.893333 0-13.653333 11.377778-23.893333 23.893334-23.893333H625.777778c13.653333 0 23.893333 11.377778 23.893333 23.893333 0 13.653333-11.377778 23.893333-23.893333 23.893333z" fill="#959595" p-id="11196"></path><path d="M760.035556 727.04h-69.404445v-25.031111h45.511111c13.653333 0 23.893333-11.377778 23.893334-23.893333 0-13.653333-11.377778-23.893333-23.893334-23.893334h-12.515555l30.72-34.133333c9.102222-10.24 7.964444-25.031111-2.275556-34.133333-10.24-9.102222-25.031111-7.964444-34.133333 2.275555l-50.062222 56.888889-47.786667-55.751111c-9.102222-10.24-23.893333-11.377778-34.133333-2.275556-10.24 9.102222-11.377778 23.893333-2.275556 34.133334l29.582222 34.133333h-14.791111c-13.653333 0-23.893333 11.377778-23.893333 23.893333 0 13.653333 11.377778 23.893333 23.893333 23.893334h45.511111V728.177778h-69.404444c-13.653333 0-23.893333 11.377778-23.893334 23.893333 0 13.653333 11.377778 23.893333 23.893334 23.893333h69.404444V853.333333c0 13.653333 11.377778 23.893333 23.893334 23.893334 13.653333 0 23.893333-11.377778 23.893333-23.893334v-77.368889h69.404444c13.653333 0 23.893333-11.377778 23.893334-23.893333-1.137778-14.791111-12.515556-25.031111-25.031111-25.031111z" fill="#0062FF" p-id="11197"></path></svg>