<?xml version="1.0" standalone="no"?><!DOCTYPE svg PUBLIC "-//W3C//DTD SVG 1.1//EN" "http://www.w3.org/Graphics/SVG/1.1/DTD/svg11.dtd"><svg t="1688188546798" class="icon" viewBox="0 0 1024 1024" version="1.1" xmlns="http://www.w3.org/2000/svg" p-id="12427" xmlns:xlink="http://www.w3.org/1999/xlink" width="200" height="200"><path d="M666.221 98.433s-58.347-24.025-147.58-24.025-147.58 27.457-147.58 27.457l295.162 296.876v-300.308z" fill="" p-id="12428"></path><path d="M825.813 203.111c-63.493-61.778-123.555-84.086-123.555-84.086l-1.716 417.002 212.788-212.788s-25.741-58.347-87.519-120.125z" fill="" p-id="12429"></path><path d="M925.345 367.854l-296.876 293.444v1.716h300.308s24.025-58.347 24.025-147.58-27.457-147.58-27.457-147.58z" fill="" p-id="12430"></path><path d="M703.973 911.84s58.347-25.741 120.125-87.519c61.778-63.493 84.086-123.555 84.086-123.555l-417.002-1.716 212.788 212.788z" fill="" p-id="12431"></path><path d="M369.344 628.691v300.308s58.347 24.025 147.58 24.025c89.235 0 147.58-27.457 147.58-27.457l-293.444-296.876h-1.716z" fill="" p-id="12432"></path><path d="M213.185 824.321c63.493 61.778 123.555 84.086 123.555 84.086l1.716-417.002-212.788 212.788s25.741 58.347 87.519 120.125z" fill="" p-id="12433"></path><path d="M110.219 366.134s-24.025 58.347-24.025 147.58 27.457 147.58 27.457 147.58l296.876-295.162h-300.308z" fill="" p-id="12434"></path><path d="M333.308 115.594s-58.347 24.025-120.125 87.519c-61.778 63.493-84.086 123.555-84.086 123.555l417.002 1.716-212.788-212.788z" fill="" p-id="12435"></path></svg>